<svg xmlns="http://www.w3.org/2000/svg" viewBox="0 0 32 32">
  <rect width="32" height="32" fill="#f7df1e" rx="2"/>
  <path fill="#000" d="M18.814,15.707v7.774c0,2.578-1.5,3.755-3.677,3.755A3.661,3.661,0,0,1,11.5,24.785l1.936-1.173a1.543,1.543,0,0,0,1.429.893c.732,0,1.2-.287,1.2-1.406V15.707Zm6.55,7.635c0,2.982-1.75,4.338-4.3,4.338a4.553,4.553,0,0,1-4.41-2.509L18.6,23.984a2.6,2.6,0,0,0,2.261,1.094c.946,0,1.553-.472,1.553-1.125,0-.782-.622-1.056-1.664-1.51l-.571-.246c-1.648-.7-2.743-1.582-2.743-3.443,0-1.713,1.307-3.018,3.347-3.018,1.453,0,2.495.505,3.245,1.83l-1.777,1.141a1.355,1.355,0,0,0-1.468-.705c-.666,0-1.094.423-1.094.93,0,.651.428.914,1.422,1.318l.571.246C24.236,21.174,25.364,21.995,25.364,23.942Z"/>
</svg>