<svg xmlns="http://www.w3.org/2000/svg" viewBox="0 0 24 24" fill="none">
  <defs>
    <linearGradient id="blue-gradient" x1="0%" y1="0%" x2="100%" y2="100%">
      <stop offset="0%" style="stop-color:#3776ab;stop-opacity:1" />
      <stop offset="100%" style="stop-color:#366994;stop-opacity:1" />
    </linearGradient>
    <linearGradient id="yellow-gradient" x1="0%" y1="0%" x2="100%" y2="100%">
      <stop offset="0%" style="stop-color:#ffd43b;stop-opacity:1" />
      <stop offset="100%" style="stop-color:#ffe873;stop-opacity:1" />
    </linearGradient>
  </defs>
  
  <!-- Python logo simplified for favicon -->
  <path d="M12 2C8 2 6 4 6 8v2h6v1H6c-2 0-4 2-4 6s2 6 4 6h2v-3c0-2 2-4 4-4h6c2 0 4-2 4-4V8c0-4-2-6-6-6h-4z" fill="url(#blue-gradient)"/>
  <path d="M12 22c4 0 6-2 6-6v-2h-6v-1h6c2 0 4-2 4-6s-2-6-4-6h-2v3c0 2-2 4-4 4H6c-2 0-4 2-4 4v4c0 4 2 6 6 6h4z" fill="url(#yellow-gradient)"/>
  
  <!-- Eyes -->
  <circle cx="9" cy="7" r="1" fill="white"/>
  <circle cx="15" cy="17" r="1" fill="white"/>
</svg>